<svg xmlns="http://www.w3.org/2000/svg" viewBox="0 0 400 280" width="400" height="280" font-family="Arial, Helvetica, sans-serif"><defs><linearGradient id="bg" x1="0" y1="0" x2="0" y2="1"><stop offset="0" stop-color="#EFE8DA"/><stop offset="1" stop-color="#E2D6BF"/></linearGradient><linearGradient id="red" x1="0" x2="1"><stop offset="0" stop-color="#9E1A1F"/><stop offset=".4" stop-color="#E23A34"/><stop offset="1" stop-color="#A01C20"/></linearGradient></defs><rect x="0" y="0" width="400" height="280" rx="26" fill="url(#bg)"/><rect x="0" y="236" width="400" height="44" fill="#D8CBB0"/><rect x="170" y="80" width="64" height="170" rx="26" fill="url(#red)"/><rect x="176" y="120" width="52" height="60" rx="4" fill="#F4F0E8"/><path d="M182 132 h40 M182 142 h40 M182 152 h30" stroke="#999" stroke-width="3"/><rect x="186" y="56" width="32" height="28" rx="4" fill="#333"/><path d="M196 56 L186 30 L236 22 L238 32 L204 40" fill="#2E2E2E"/><path d="M186 60 Q140 70 142 130 L150 176" stroke="#222" stroke-width="8" fill="none"/><path d="M142 170 L136 210 L160 212 L156 170Z" fill="#1E1E1E"/></svg>