<svg xmlns="http://www.w3.org/2000/svg" viewBox="0 0 400 280" width="400" height="280" font-family="Arial, Helvetica, sans-serif"><defs><linearGradient id="bg" x1="0" y1="0" x2="0" y2="1"><stop offset="0" stop-color="#EDEBE3"/><stop offset="1" stop-color="#D9CFB8"/></linearGradient><linearGradient id="steel" x1="0" x2="1"><stop offset="0" stop-color="#8E959C"/><stop offset=".35" stop-color="#F2F4F6"/><stop offset=".6" stop-color="#C4C9CE"/><stop offset="1" stop-color="#7C838A"/></linearGradient></defs><rect x="0" y="0" width="400" height="280" rx="26" fill="url(#bg)"/><rect x="0" y="0" width="400" height="110" rx="26" fill="#F4F3EF"/><rect x="250" y="14" width="140" height="5" fill="#DADDE0"/><rect x="250" y="23" width="140" height="5" fill="#DADDE0"/><rect x="250" y="32" width="140" height="5" fill="#DADDE0"/><rect x="250" y="41" width="140" height="5" fill="#DADDE0"/><rect x="250" y="50" width="140" height="5" fill="#DADDE0"/><rect x="250" y="59" width="140" height="5" fill="#DADDE0"/><rect x="250" y="68" width="140" height="5" fill="#DADDE0"/><rect x="250" y="77" width="140" height="5" fill="#DADDE0"/><rect x="250" y="86" width="140" height="5" fill="#DADDE0"/><rect x="250" y="95" width="140" height="5" fill="#DADDE0"/><rect x="0" y="120" width="400" height="160" rx="0" fill="#D8C9A4"/><rect x="0" y="252" width="400" height="28" rx="0" fill="#CDBB92"/><path d="M110 150 L300 150 L286 236 L124 236Z" fill="#E6E8EA" stroke="#9AA0A6" stroke-width="3"/><path d="M130 160 L280 160 L270 226 L140 226Z" fill="#C9CED3"/><circle cx="205" cy="220" r="6" fill="#6E747A"/><path d="M190 150 L190 40 Q190 22 172 22 Q156 22 156 40 L156 58" stroke="url(#steel)" stroke-width="9" fill="none" stroke-linecap="round"/><rect x="176" y="92" width="28" height="10" rx="4" fill="#3FA56B"/><rect x="176" y="112" width="28" height="10" rx="4" fill="#3FA56B"/><path d="M156 58 Q150 110 170 170" stroke="#2E2A29" stroke-width="5" fill="none"/><rect x="40" y="80" width="18" height="60" rx="4" fill="url(#steel)"/><rect x="30" y="72" width="38" height="10" rx="4" fill="#3FA56B"/></svg>