<svg xmlns="http://www.w3.org/2000/svg" viewBox="0 0 360 260" width="360" height="260" font-family="Arial, Helvetica, sans-serif"><defs></defs><rect width="360" height="260" fill="#fff"/><circle cx="130" cy="150" r="80" fill="#F6F6F4" stroke="#C9C9C4" stroke-width="3"/><circle cx="130" cy="150" r="58" fill="#EDEDEA" stroke="#C9C9C4" stroke-width="2"/><circle cx="130" cy="150" r="36" fill="#F6F6F4" stroke="#C9C9C4" stroke-width="2"/><path d="M190 96 L330 30 L346 64 L206 130Z" fill="#F7F7F5" stroke="#C9C9C4" stroke-width="2"/><path d="M206 126 l-6 -12" stroke="#222" stroke-width="1.5"/><path d="M220 119 l-6 -12" stroke="#222" stroke-width="1.5"/><path d="M234 113 l-6 -12" stroke="#222" stroke-width="1.5"/><path d="M248 106 l-6 -12" stroke="#222" stroke-width="1.5"/><path d="M262 100 l-6 -12" stroke="#222" stroke-width="1.5"/><path d="M276 93 l-6 -12" stroke="#222" stroke-width="1.5"/><path d="M290 86 l-6 -12" stroke="#222" stroke-width="1.5"/><path d="M304 80 l-6 -12" stroke="#222" stroke-width="1.5"/><path d="M318 73 l-6 -12" stroke="#222" stroke-width="1.5"/><path d="M332 67 l-6 -12" stroke="#222" stroke-width="1.5"/><text x="240" y="98" font-size="16" font-weight="700" fill="#222" transform="rotate(-25 240 98)">1  2  3</text><path d="M330 30 L346 64 L356 60 L340 26Z" fill="#F2C94C" stroke="#B8901F"/><text x="96" y="160" font-size="22" font-weight="700" fill="#222" transform="rotate(-20 130 150)">9  10</text></svg>