<svg xmlns="http://www.w3.org/2000/svg" viewBox="0 0 900 230" width="900" height="230" font-family="Arial, Helvetica, sans-serif"><defs></defs><rect width="900" height="230" fill="#fff"/><rect x="30" y="170" width="220" height="26" fill="#EFD9A0" stroke="#B89A55" stroke-width="2"/><path d="M36 170 v16" stroke="#6B5A33" stroke-width="1.4"/><path d="M46 170 v10" stroke="#6B5A33" stroke-width="1.4"/><path d="M56 170 v10" stroke="#6B5A33" stroke-width="1.4"/><path d="M66 170 v10" stroke="#6B5A33" stroke-width="1.4"/><path d="M76 170 v10" stroke="#6B5A33" stroke-width="1.4"/><path d="M86 170 v16" stroke="#6B5A33" stroke-width="1.4"/><path d="M96 170 v10" stroke="#6B5A33" stroke-width="1.4"/><path d="M106 170 v10" stroke="#6B5A33" stroke-width="1.4"/><path d="M116 170 v10" stroke="#6B5A33" stroke-width="1.4"/><path d="M126 170 v10" stroke="#6B5A33" stroke-width="1.4"/><path d="M136 170 v16" stroke="#6B5A33" stroke-width="1.4"/><path d="M146 170 v10" stroke="#6B5A33" stroke-width="1.4"/><path d="M156 170 v10" stroke="#6B5A33" stroke-width="1.4"/><path d="M166 170 v10" stroke="#6B5A33" stroke-width="1.4"/><path d="M176 170 v10" stroke="#6B5A33" stroke-width="1.4"/><path d="M186 170 v16" stroke="#6B5A33" stroke-width="1.4"/><path d="M196 170 v10" stroke="#6B5A33" stroke-width="1.4"/><path d="M206 170 v10" stroke="#6B5A33" stroke-width="1.4"/><path d="M216 170 v10" stroke="#6B5A33" stroke-width="1.4"/><path d="M226 170 v10" stroke="#6B5A33" stroke-width="1.4"/><path d="M236 170 v16" stroke="#6B5A33" stroke-width="1.4"/><path d="M40 162 L140 162 L152 166 L140 170 L40 170Z" fill="#F2C94C" stroke="#8C6B18"/><g transform="rotate(0 140 40)"><circle cx="140" cy="40" r="14" fill="#fff" stroke="#bbb" stroke-width="2"/><path d="M130 40 Q140 30 150 40 Q140 50 130 40Z" fill="#fff" stroke="#333" stroke-width="2"/><circle cx="140" cy="40" r="4" fill="#333"/></g><text x="118" y="30" font-size="20" font-weight="700" fill="#3AA657">✓</text><g transform="rotate(-30 60 80)"><circle cx="60" cy="80" r="14" fill="#fff" stroke="#bbb" stroke-width="2"/><path d="M50 80 Q60 70 70 80 Q60 90 50 80Z" fill="#fff" stroke="#333" stroke-width="2"/><circle cx="60" cy="80" r="4" fill="#333"/></g><text x="38" y="70" font-size="20" font-weight="700" fill="#E23A34">✗</text><g transform="rotate(30 230 80)"><circle cx="230" cy="80" r="14" fill="#fff" stroke="#bbb" stroke-width="2"/><path d="M220 80 Q230 70 240 80 Q230 90 220 80Z" fill="#fff" stroke="#333" stroke-width="2"/><circle cx="230" cy="80" r="4" fill="#333"/></g><text x="208" y="70" font-size="20" font-weight="700" fill="#E23A34">✗</text><path d="M140 54 L150 166 M72 90 L150 166 M218 90 L150 166" stroke="#E23A34" stroke-width="1.5" stroke-dasharray="4 4"/><rect x="420" y="20" width="70" height="200" fill="#F4F8FA" stroke="#9FB2BB" stroke-width="3"/><rect x="422" y="112" width="66" height="106" fill="#F6E7B8"/><path d="M422 110 Q455 126 488 110" fill="#F6E7B8" stroke="#C9A14A" stroke-width="2"/><path d="M420 40 h18" stroke="#555" stroke-width="1.4"/><path d="M420 54 h10" stroke="#555" stroke-width="1.4"/><path d="M420 68 h10" stroke="#555" stroke-width="1.4"/><path d="M420 82 h10" stroke="#555" stroke-width="1.4"/><path d="M420 96 h10" stroke="#555" stroke-width="1.4"/><path d="M420 110 h18" stroke="#555" stroke-width="1.4"/><path d="M420 124 h10" stroke="#555" stroke-width="1.4"/><path d="M420 138 h10" stroke="#555" stroke-width="1.4"/><path d="M420 152 h10" stroke="#555" stroke-width="1.4"/><path d="M420 166 h10" stroke="#555" stroke-width="1.4"/><path d="M420 180 h18" stroke="#555" stroke-width="1.4"/><path d="M420 194 h10" stroke="#555" stroke-width="1.4"/><path d="M420 208 h10" stroke="#555" stroke-width="1.4"/><text x="446" y="54" font-size="12" fill="#555">6</text><text x="446" y="124" font-size="12" fill="#555">4</text><text x="446" y="194" font-size="12" fill="#555">2</text><g transform="rotate(0 340 60)"><circle cx="340" cy="60" r="14" fill="#fff" stroke="#bbb" stroke-width="2"/><path d="M330 60 Q340 50 350 60 Q340 70 330 60Z" fill="#fff" stroke="#333" stroke-width="2"/><circle cx="340" cy="60" r="4" fill="#333"/></g><text x="318" y="50" font-size="20" font-weight="700" fill="#E23A34">✗</text><g transform="rotate(0 340 118)"><circle cx="340" cy="118" r="14" fill="#fff" stroke="#bbb" stroke-width="2"/><path d="M330 118 Q340 108 350 118 Q340 128 330 118Z" fill="#fff" stroke="#333" stroke-width="2"/><circle cx="340" cy="118" r="4" fill="#333"/></g><text x="318" y="108" font-size="20" font-weight="700" fill="#3AA657">✓</text><g transform="rotate(0 340 176)"><circle cx="340" cy="176" r="14" fill="#fff" stroke="#bbb" stroke-width="2"/><path d="M330 176 Q340 166 350 176 Q340 186 330 176Z" fill="#fff" stroke="#333" stroke-width="2"/><circle cx="340" cy="176" r="4" fill="#333"/></g><text x="318" y="166" font-size="20" font-weight="700" fill="#E23A34">✗</text><path d="M354 60 L455 118 M354 118 L455 118 M354 176 L455 118" stroke="#E23A34" stroke-width="1.5" stroke-dasharray="4 4"/><path d="M354 118 L455 118" stroke="#3AA657" stroke-width="2" stroke-dasharray="4 4"/><rect x="640" y="30" width="10" height="180" rx="5" fill="#F4F8FA" stroke="#9FB2BB" stroke-width="2"/><rect x="643" y="100" width="4" height="100" fill="#E23A34"/><circle cx="645" cy="210" r="9" fill="#E23A34"/><path d="M600 50 Q620 20 650 36 Q660 44 648 52 L630 56Z" fill="#F4C9A8" stroke="#C99A78"/><g transform="rotate(0 790 60)"><circle cx="790" cy="60" r="14" fill="#fff" stroke="#bbb" stroke-width="2"/><path d="M780 60 Q790 50 800 60 Q790 70 780 60Z" fill="#fff" stroke="#333" stroke-width="2"/><circle cx="790" cy="60" r="4" fill="#333"/></g><text x="768" y="50" font-size="20" font-weight="700" fill="#E23A34">✗</text><g transform="rotate(0 790 118)"><circle cx="790" cy="118" r="14" fill="#fff" stroke="#bbb" stroke-width="2"/><path d="M780 118 Q790 108 800 118 Q790 128 780 118Z" fill="#fff" stroke="#333" stroke-width="2"/><circle cx="790" cy="118" r="4" fill="#333"/></g><text x="768" y="108" font-size="20" font-weight="700" fill="#3AA657">✓</text><g transform="rotate(0 790 176)"><circle cx="790" cy="176" r="14" fill="#fff" stroke="#bbb" stroke-width="2"/><path d="M780 176 Q790 166 800 176 Q790 186 780 176Z" fill="#fff" stroke="#333" stroke-width="2"/><circle cx="790" cy="176" r="4" fill="#333"/></g><text x="768" y="166" font-size="20" font-weight="700" fill="#E23A34">✗</text><path d="M776 60 L648 118 M776 118 L648 118 M776 176 L648 118" stroke="#E23A34" stroke-width="1.5" stroke-dasharray="4 4"/></svg>